M48
; DRILL file KiCad 10.0.0 date 2026-08-08T11:43:45
; FORMAT={-:-/ absolute / metric / decimal}
; #@! TF.CreationDate,2026-08-08T11:43:45+05:30
; #@! TF.GenerationSoftware,Kicad,Pcbnew,10.0.0
; #@! TF.FileFunction,Plated,1,2,PTH
FMAT,2
METRIC
; #@! TA.AperFunction,Plated,PTH,ViaDrill
T1C0.300
; #@! TA.AperFunction,Plated,PTH,ComponentDrill
T2C0.710
; #@! TA.AperFunction,Plated,PTH,ComponentDrill
T3C0.750
; #@! TA.AperFunction,Plated,PTH,ComponentDrill
T4C3.000
%
G90
G05
T1
X174.99Y-89.39
X176.19Y-98.77
X176.38Y-106.73
X181.88Y-107.29
X184.29Y-110.92
X195.4Y-83.5
X197.95Y-79.89
X198.35Y-110.97
X198.57Y-104.63
X199.49Y-85.12
X200.03Y-105.97
X202.28Y-81.37
X202.45Y-93.9
X202.87Y-111.0
X203.485Y-101.78
X205.16Y-104.59
X205.48Y-88.82
X206.44Y-84.8
X207.09Y-106.13
X207.1Y-107.3
X207.4Y-102.91
X208.87Y-81.01
X209.46Y-95.87
X209.71Y-108.98
X217.16Y-83.14
X220.38Y-102.99
X220.43Y-105.25
X220.43Y-111.49
X222.53Y-103.04
X222.64Y-105.14
T2
X210.19Y-111.75
X212.73Y-111.75
X215.27Y-111.75
T3
X180.75Y-102.4
X182.02Y-102.4
X183.29Y-102.4
T4
X177.11Y-112.5
X177.17Y-82.45
X225.73Y-82.45
X225.73Y-112.5
M30
